<?xml version="1.0" standalone="no"?>
<!DOCTYPE svg PUBLIC "-//W3C//DTD SVG 20010904//EN"
 "http://www.w3.org/TR/2001/REC-SVG-20010904/DTD/svg10.dtd">
<svg version="1.0" xmlns="http://www.w3.org/2000/svg"
 width="700.000000pt" height="700.000000pt" viewBox="0 0 700.000000 700.000000"
 preserveAspectRatio="xMidYMid meet">
<metadata>
Created by potrace 1.14, written by Peter Selinger 2001-2017
</metadata>
<g transform="translate(0.000000,700.000000) scale(0.100000,-0.100000)"
fill="#000000" stroke="none">
<path d="M2143 5231 c-232 -57 -408 -228 -480 -466 -17 -57 -18 -126 -18
-1195 l0 -1135 28 -56 c44 -91 118 -155 207 -179 30 -8 257 -11 775 -11 l733
-1 4 -141 c4 -153 12 -181 66 -232 35 -34 69 -52 115 -60 l37 -7 -2 -437 -3
-436 -540 -1 c-297 -1 -542 -2 -545 -3 -3 0 -5 -49 -5 -108 l0 -107 1310 -1
1310 0 3 110 3 110 -218 0 -218 0 -1 433 c-1 306 2 435 10 437 63 17 117 44
144 73 52 55 62 90 65 236 l2 131 260 2 c568 4 566 4 621 24 74 28 137 88 176
166 l32 66 1 304 c0 171 -3 307 -8 310 -14 8 -187 9 -200 1 -7 -4 -11 -46 -11
-110 l-1 -103 -1410 -1 c-775 0 -1415 1 -1421 3 -7 3 -11 276 -11 916 0 903 0
913 -22 990 -24 89 -58 161 -108 230 l-35 47 1384 -2 1383 -3 58 -29 c70 -36
120 -89 154 -163 20 -43 26 -74 28 -146 l2 -92 99 -1 c55 -1 104 3 110 8 17
12 9 176 -11 245 -55 191 -206 337 -400 387 -53 14 -254 16 -1720 15 -1556 0
-1665 -2 -1732 -18z m263 -215 c73 -19 145 -61 199 -115 48 -48 110 -160 121
-221 4 -19 7 -538 8 -1153 1 -986 -1 -1117 -14 -1118 -8 0 -185 -1 -392 -1
-279 -1 -384 2 -407 11 -64 27 -61 -32 -61 1153 0 1138 -1 1102 46 1205 32 69
108 154 176 195 85 53 223 71 324 44z m3386 -2395 c5 0 6 -33 5 -71 -4 -83
-24 -117 -77 -134 -25 -8 -421 -11 -1370 -10 -734 1 -1349 3 -1366 3 l-32 1 1
103 c0 56 1 104 2 107 3 4 2813 5 2837 1z m-1091 -439 c0 -4 1 -52 2 -107 l1
-100 -547 -3 -547 -2 0 109 0 110 545 0 c300 0 545 -3 546 -7z m-653 -739 c0
-170 1 -318 1 -329 1 -21 5 -22 109 -20 l107 1 1 315 c1 173 2 321 3 328 1 10
27 12 108 10 l108 -3 0 -432 c0 -238 -2 -434 -5 -434 -3 -1 -150 -2 -327 -3
l-323 -1 0 437 0 438 109 0 108 0 1 -307z"/>
<path d="M2083 4256 c-8 -11 -7 -196 1 -203 5 -5 373 -8 422 -4 6 1 10 40 9
108 l-1 108 -213 0 c-117 0 -215 -4 -218 -9z"/>
<path d="M3968 4368 c-146 -34 -253 -117 -314 -244 -122 -255 30 -558 309
-614 137 -28 264 7 371 101 151 133 188 326 102 529 -6 13 72 15 674 15 374 0
681 -2 682 -5 0 -3 2 -138 3 -300 2 -250 5 -303 20 -345 32 -94 114 -175 210
-208 22 -8 71 -14 111 -13 137 4 254 90 299 221 15 43 17 91 17 330 0 276 0
281 -25 336 -41 93 -115 160 -209 191 -38 12 -2197 18 -2250 6z m160 -229
c111 -42 167 -180 117 -287 -44 -94 -126 -140 -229 -128 -141 18 -228 174
-166 301 23 49 36 64 75 92 58 41 133 49 203 22z m2057 -3 c46 -30 48 -47 50
-296 0 -129 -3 -247 -8 -261 -22 -69 -103 -98 -162 -58 -19 13 -38 33 -42 44
-3 11 -7 149 -7 306 l-1 286 72 -2 c47 -2 82 -8 98 -19z"/>
<path d="M4922 3610 l-1 -110 330 0 329 0 -2 108 -3 107 -326 3 -326 2 -1
-110z"/>
<path d="M4993 3282 l-72 -3 2 -107 2 -107 325 0 325 0 3 108 c2 82 0 107 -10
107 -102 3 -521 4 -575 2z"/>
</g>
</svg>
